<?xml version="1.0" encoding="utf-8"?>
<svg version="1.1" id="Layer_1"
xmlns="http://www.w3.org/2000/svg"
xmlns:xlink="http://www.w3.org/1999/xlink"
width="550px" height="400px"
xml:space="preserve">
<g id="PathID_1" transform="matrix(1.1732, 0, 0, 1.1732, 273, 162.15)" opacity="1">
<path style="fill:#000000;fill-opacity:1" d="M49.85 -50.55Q50.75 -49.7 50.75 -48.5Q50.75 -47.25 49.9 -46.35Q49.05 -45.5 47.85 -45.45L47.75 -45.45Q42.7 -45.3 39.05 -41.6Q35.15 -37.75 35.15 -32.3Q35.15 -26.9 39.05 -23Q42.75 -19.3 47.95 -19.15L48.05 -19.15L62.25 -19.15Q69.9 -19.05 75.4 -13.55Q81 -7.95 81 0Q81 7.9 75.4 13.55Q70.3 18.6 63.4 19.1L62.9 19.15L62.8 19.15Q57.75 19.3 54.1 23Q50.2 26.85 50.2 32.3Q50.2 37.7 54.1 41.6Q57.65 45.15 62.6 45.45L62.95 45.45Q64.2 45.45 65.1 46.35Q65.95 47.2 65.95 48.45Q65.95 49.7 65.1 50.6Q64.2 51.45 62.95 51.45L62.55 51.45L62.4 51.45L62.25 51.45L-62.25 51.45L-62.8 51.45L-62.95 51.45Q-70.15 51.05 -75.4 45.85L-75.4 45.8Q-81 40.2 -81 32.3Q-81 24.35 -75.4 18.75Q-70.45 13.8 -63.75 13.25L-63.05 13.15Q-58.95 13.1 -55.75 10.75L-55.7 10.75L-54.05 9.3Q-50.2 5.4 -50.2 0Q-50.2 -5.45 -54.05 -9.3L-55.65 -10.7L-55.7 -10.75Q-58.8 -13 -62.8 -13.15L-62.9 -13.15L-63.05 -13.15Q-70.15 -13.6 -75.4 -18.75L-75.4 -18.8Q-81 -24.4 -81 -32.3Q-81 -40.25 -75.4 -45.85Q-69.9 -51.35 -62.3 -51.45L47.75 -51.45Q49 -51.45 49.85 -50.55M34.35 -45.45L-62.25 -45.45Q-67.4 -45.35 -71.15 -41.65L-71.2 -41.6Q-75 -37.75 -75 -32.3Q-75 -26.9 -71.2 -23L-71.15 -23Q-67.55 -19.45 -62.7 -19.15L-62.6 -19.15L-62.25 -19.15L34.4 -19.15Q29.15 -24.65 29.15 -32.3Q29.15 -39.95 34.35 -45.45M62.2 -13.15L-49.4 -13.15Q-44.2 -7.65 -44.2 0Q-44.2 7.65 -49.45 13.15L62.15 13.15Q67.4 13 71.15 9.3Q75 5.4 75 0Q75 -5.45 71.15 -9.3Q67.4 -13.05 62.2 -13.15M44.2 32.3Q44.2 24.65 49.4 19.15L-62.4 19.15L-62.5 19.15L-62.8 19.2Q-67.65 19.5 -71.15 22.95L-71.2 23Q-75 26.85 -75 32.3Q-75 37.7 -71.2 41.6L-71.15 41.6Q-67.55 45.15 -62.6 45.45L-62.25 45.45L49.45 45.45Q44.2 39.95 44.2 32.3" />
</g>
<g id="PathID_2" transform="matrix(1.1732, 0, 0, 1.1732, 273, 162.15)" opacity="1">
</g>
<g id="PathID_3" transform="matrix(1.1732, 0, 0, 1.1732, 247.1, 124.3)" opacity="1">
<path style="fill:#2E8A20;fill-opacity:1" d="M-45.75 -6.15Q-43.4 -8.55 -40.05 -8.65L48.4 -8.65Q46.8 -4.65 46.8 0Q46.8 4.65 48.4 8.65L-39.9 8.65Q-43.35 8.55 -45.75 6.1L-46 5.9Q-48.35 3.4 -48.35 0Q-48.35 -3.55 -45.75 -6.1L-45.75 -6.15" />
</g>
<g id="PathID_4" transform="matrix(1.1732, 0, 0, 1.1732, 247.1, 124.3)" opacity="1">
</g>
<g id="PathID_5" transform="matrix(1.1732, 0, 0, 1.1732, 290.15, 162.15)" opacity="1">
<path style="fill:#3E76D2;fill-opacity:1" d="M53.4 -6.1Q55.9 -3.6 55.9 0Q55.9 3.55 53.4 6.1L53.15 6.35Q50.75 8.5 47.6 8.65L-55.85 8.65Q-54.3 4.65 -54.3 0Q-54.3 -4.65 -55.9 -8.65L47.5 -8.65Q50.9 -8.6 53.4 -6.1" />
</g>
<g id="PathID_6" transform="matrix(1.1732, 0, 0, 1.1732, 290.15, 162.15)" opacity="1">
</g>
<g id="PathID_7" transform="matrix(1.1732, 0, 0, 1.1732, 255.9, 200.05)" opacity="1">
<path style="fill:#E42C2C;fill-opacity:1" d="M-53.3 -6.1Q-50.95 -8.55 -47.65 -8.65L55.9 -8.65Q54.3 -4.65 54.3 0Q54.3 4.65 55.9 8.65L-47.5 8.65Q-50.9 8.55 -53.3 6.15Q-55.9 3.55 -55.9 0Q-55.9 -3.55 -53.35 -6.05L-53.3 -6.1" />
</g>
<g id="PathID_8" transform="matrix(1.1732, 0, 0, 1.1732, 255.9, 200.05)" opacity="1">
</g>
<g id="PathID_9" transform="matrix(0.77908, 0, 0, 0.77908, 212.6, 260.7)" opacity="1">
<path style="fill:#000000;fill-opacity:1" d="M36.25 0L28.65 0L21.1 -12.85L10.5 -12.85L10.5 0L4 0L4 -34.3L24.9 -34.3Q29.45 -34.3 32.6 -31.15Q35.75 -28 35.75 -23.6Q35.75 -20.15 33.75 -17.4Q31.75 -14.65 28.4 -13.45L36.25 0M29.2 -23.6Q29.2 -25.3 27.95 -26.55Q26.7 -27.8 24.9 -27.8L10.5 -27.8L10.5 -19.35L24.9 -19.35Q26.7 -19.35 27.95 -20.6Q29.2 -21.85 29.2 -23.6" />
</g>
<g id="PathID_10" transform="matrix(0.77908, 0, 0, 0.77908, 212.6, 260.7)" opacity="1">
</g>
<g id="PathID_11" transform="matrix(0.77908, 0, 0, 0.77908, 241.5, 260.7)" opacity="1">
<path style="fill:#000000;fill-opacity:1" d="M31.95 0L4.15 0L4.15 -34.3L10.65 -34.3L10.65 -6.5L31.95 -6.5L31.95 0" />
</g>
<g id="PathID_12" transform="matrix(0.77908, 0, 0, 0.77908, 241.5, 260.7)" opacity="1">
</g>
<g id="PathID_13" transform="matrix(0.77908, 0, 0, 0.77908, 267.25, 260.7)" opacity="1">
<path style="fill:#000000;fill-opacity:1" d="M41.7 0L35.2 0L35.2 -20.3L23.2 0L11.05 -20.3L11.05 0L4.65 0L4.65 -34.3L10.65 -34.3L23.2 -12.7L35.55 -34.3L41.7 -34.3L41.7 0" />
</g>
<g id="PathID_14" transform="matrix(0.77908, 0, 0, 0.77908, 267.25, 260.7)" opacity="1">
</g>
<g id="PathID_15" transform="matrix(0.77908, 0, 0, 0.77908, 301, 260.7)" opacity="1">
<path style="fill:#000000;fill-opacity:1" d="M35.35 -10.25Q35.3 -5.2 31.4 -2.3Q27.5 0.6 20.3 0.6Q10.45 0.6 3.25 -4.55L7 -9.85Q12.7 -6 20.1 -5.95Q24.65 -6.1 26.85 -7.2Q29 -8.35 29.05 -10.3Q29.2 -12.15 26.9 -13.4Q24.6 -14.6 19.7 -15.1Q11.05 -16 8.15 -18.6Q5.2 -21.2 5.25 -25.3Q5.35 -29.7 9.45 -32.2Q13.55 -34.75 19.5 -34.85Q26.45 -34.85 33.2 -30.8L29.65 -25.6Q25.1 -28.25 19.05 -28.25Q16.4 -28.3 14.1 -27.65Q11.75 -26.95 11.85 -25.3Q11.75 -23.75 13.85 -22.85Q15.95 -21.95 21.05 -21.45Q29 -20.7 32.2 -17.4Q35.35 -14.05 35.35 -10.25" />
</g>
<g id="PathID_16" transform="matrix(0.77908, 0, 0, 0.77908, 301, 260.7)" opacity="1">
</g>
</svg>
